<svg id="visual" viewBox="0 0 900 600" width="900" height="600" xmlns="http://www.w3.org/2000/svg" xmlns:xlink="http://www.w3.org/1999/xlink" version="1.1"><path d="M0 115L13.7 113C27.3 111 54.7 107 82 112C109.3 117 136.7 131 163.8 134C191 137 218 129 245.2 136C272.3 143 299.7 165 327 180C354.3 195 381.7 203 409 202C436.3 201 463.7 191 491 172C518.3 153 545.7 125 573 127C600.3 129 627.7 161 654.8 170C682 179 709 165 736.2 165C763.3 165 790.7 179 818 189C845.3 199 872.7 205 886.3 208L900 211L900 0L886.3 0C872.7 0 845.3 0 818 0C790.7 0 763.3 0 736.2 0C709 0 682 0 654.8 0C627.7 0 600.3 0 573 0C545.7 0 518.3 0 491 0C463.7 0 436.3 0 409 0C381.7 0 354.3 0 327 0C299.7 0 272.3 0 245.2 0C218 0 191 0 163.8 0C136.7 0 109.3 0 82 0C54.7 0 27.3 0 13.7 0L0 0Z" fill="#090909"></path><path d="M0 319L13.7 326C27.3 333 54.7 347 82 349C109.3 351 136.7 341 163.8 339C191 337 218 343 245.2 348C272.3 353 299.7 357 327 361C354.3 365 381.7 369 409 376C436.3 383 463.7 393 491 382C518.3 371 545.7 339 573 325C600.3 311 627.7 315 654.8 315C682 315 709 311 736.2 304C763.3 297 790.7 287 818 305C845.3 323 872.7 369 886.3 392L900 415L900 209L886.3 206C872.7 203 845.3 197 818 187C790.7 177 763.3 163 736.2 163C709 163 682 177 654.8 168C627.7 159 600.3 127 573 125C545.7 123 518.3 151 491 170C463.7 189 436.3 199 409 200C381.7 201 354.3 193 327 178C299.7 163 272.3 141 245.2 134C218 127 191 135 163.8 132C136.7 129 109.3 115 82 110C54.7 105 27.3 109 13.7 111L0 113Z" fill="#0b0b0b"></path><path d="M0 493L13.7 487C27.3 481 54.7 469 82 456C109.3 443 136.7 429 163.8 422C191 415 218 415 245.2 420C272.3 425 299.7 435 327 439C354.3 443 381.7 441 409 449C436.3 457 463.7 475 491 470C518.3 465 545.7 437 573 425C600.3 413 627.7 417 654.8 427C682 437 709 453 736.2 451C763.3 449 790.7 429 818 430C845.3 431 872.7 453 886.3 464L900 475L900 413L886.3 390C872.7 367 845.3 321 818 303C790.7 285 763.3 295 736.2 302C709 309 682 313 654.8 313C627.7 313 600.3 309 573 323C545.7 337 518.3 369 491 380C463.7 391 436.3 381 409 374C381.7 367 354.3 363 327 359C299.7 355 272.3 351 245.2 346C218 341 191 335 163.8 337C136.7 339 109.3 349 82 347C54.7 345 27.3 331 13.7 324L0 317Z" fill="#0c0c0c"></path><path d="M0 559L13.7 558C27.3 557 54.7 555 82 543C109.3 531 136.7 509 163.8 497C191 485 218 483 245.2 487C272.3 491 299.7 501 327 509C354.3 517 381.7 523 409 530C436.3 537 463.7 545 491 542C518.3 539 545.7 525 573 518C600.3 511 627.7 511 654.8 510C682 509 709 507 736.2 506C763.3 505 790.7 505 818 511C845.3 517 872.7 529 886.3 535L900 541L900 473L886.3 462C872.7 451 845.3 429 818 428C790.7 427 763.3 447 736.2 449C709 451 682 435 654.8 425C627.7 415 600.3 411 573 423C545.7 435 518.3 463 491 468C463.7 473 436.3 455 409 447C381.7 439 354.3 441 327 437C299.7 433 272.3 423 245.2 418C218 413 191 413 163.8 420C136.7 427 109.3 441 82 454C54.7 467 27.3 479 13.7 485L0 491Z" fill="#1f1f1f"></path><path d="M0 601L13.7 601C27.3 601 54.7 601 82 601C109.3 601 136.7 601 163.8 601C191 601 218 601 245.2 601C272.3 601 299.7 601 327 601C354.3 601 381.7 601 409 601C436.3 601 463.7 601 491 601C518.3 601 545.7 601 573 601C600.3 601 627.7 601 654.8 601C682 601 709 601 736.2 601C763.3 601 790.7 601 818 601C845.3 601 872.7 601 886.3 601L900 601L900 539L886.3 533C872.7 527 845.3 515 818 509C790.7 503 763.3 503 736.2 504C709 505 682 507 654.8 508C627.7 509 600.3 509 573 516C545.7 523 518.3 537 491 540C463.7 543 436.3 535 409 528C381.7 521 354.3 515 327 507C299.7 499 272.3 489 245.2 485C218 481 191 483 163.8 495C136.7 507 109.3 529 82 541C54.7 553 27.3 555 13.7 556L0 557Z" fill="#303030"></path></svg>