<svg id="visual" viewBox="0 0 900 600" width="900" height="600" xmlns="http://www.w3.org/2000/svg" xmlns:xlink="http://www.w3.org/1999/xlink" version="1.1"><path d="M0 193L13.7 205C27.3 217 54.7 241 82 231C109.3 221 136.7 177 163.8 161C191 145 218 157 245.2 168C272.3 179 299.7 189 327 209C354.3 229 381.7 259 409 251C436.3 243 463.7 197 491 172C518.3 147 545.7 143 573 136C600.3 129 627.7 119 654.8 131C682 143 709 177 736.2 184C763.3 191 790.7 171 818 171C845.3 171 872.7 191 886.3 201L900 211L900 0L886.3 0C872.7 0 845.3 0 818 0C790.7 0 763.3 0 736.2 0C709 0 682 0 654.8 0C627.7 0 600.3 0 573 0C545.7 0 518.3 0 491 0C463.7 0 436.3 0 409 0C381.7 0 354.3 0 327 0C299.7 0 272.3 0 245.2 0C218 0 191 0 163.8 0C136.7 0 109.3 0 82 0C54.7 0 27.3 0 13.7 0L0 0Z" fill="#0c0a0c"></path><path d="M0 331L13.7 345C27.3 359 54.7 387 82 391C109.3 395 136.7 375 163.8 359C191 343 218 331 245.2 333C272.3 335 299.7 351 327 368C354.3 385 381.7 403 409 407C436.3 411 463.7 401 491 379C518.3 357 545.7 323 573 308C600.3 293 627.7 297 654.8 299C682 301 709 301 736.2 313C763.3 325 790.7 349 818 352C845.3 355 872.7 337 886.3 328L900 319L900 209L886.3 199C872.7 189 845.3 169 818 169C790.7 169 763.3 189 736.2 182C709 175 682 141 654.8 129C627.7 117 600.3 127 573 134C545.7 141 518.3 145 491 170C463.7 195 436.3 241 409 249C381.7 257 354.3 227 327 207C299.7 187 272.3 177 245.2 166C218 155 191 143 163.8 159C136.7 175 109.3 219 82 229C54.7 239 27.3 215 13.7 203L0 191Z" fill="#302231"></path><path d="M0 445L13.7 450C27.3 455 54.7 465 82 465C109.3 465 136.7 455 163.8 442C191 429 218 413 245.2 413C272.3 413 299.7 429 327 442C354.3 455 381.7 465 409 469C436.3 473 463.7 471 491 456C518.3 441 545.7 413 573 406C600.3 399 627.7 413 654.8 412C682 411 709 395 736.2 393C763.3 391 790.7 403 818 411C845.3 419 872.7 423 886.3 425L900 427L900 317L886.3 326C872.7 335 845.3 353 818 350C790.7 347 763.3 323 736.2 311C709 299 682 299 654.8 297C627.7 295 600.3 291 573 306C545.7 321 518.3 355 491 377C463.7 399 436.3 409 409 405C381.7 401 354.3 383 327 366C299.7 349 272.3 333 245.2 331C218 329 191 341 163.8 357C136.7 373 109.3 393 82 389C54.7 385 27.3 357 13.7 343L0 329Z" fill="#543758"></path><path d="M0 565L13.7 564C27.3 563 54.7 561 82 557C109.3 553 136.7 547 163.8 540C191 533 218 525 245.2 527C272.3 529 299.7 541 327 546C354.3 551 381.7 549 409 550C436.3 551 463.7 555 491 554C518.3 553 545.7 547 573 547C600.3 547 627.7 553 654.8 546C682 539 709 519 736.2 514C763.3 509 790.7 519 818 519C845.3 519 872.7 509 886.3 504L900 499L900 425L886.3 423C872.7 421 845.3 417 818 409C790.7 401 763.3 389 736.2 391C709 393 682 409 654.8 410C627.7 411 600.3 397 573 404C545.7 411 518.3 439 491 454C463.7 469 436.3 471 409 467C381.7 463 354.3 453 327 440C299.7 427 272.3 411 245.2 411C218 411 191 427 163.8 440C136.7 453 109.3 463 82 463C54.7 463 27.3 453 13.7 448L0 443Z" fill="#7b4e83"></path><path d="M0 601L13.7 601C27.3 601 54.7 601 82 601C109.3 601 136.7 601 163.8 601C191 601 218 601 245.2 601C272.3 601 299.7 601 327 601C354.3 601 381.7 601 409 601C436.3 601 463.7 601 491 601C518.3 601 545.7 601 573 601C600.3 601 627.7 601 654.8 601C682 601 709 601 736.2 601C763.3 601 790.7 601 818 601C845.3 601 872.7 601 886.3 601L900 601L900 497L886.3 502C872.7 507 845.3 517 818 517C790.7 517 763.3 507 736.2 512C709 517 682 537 654.8 544C627.7 551 600.3 545 573 545C545.7 545 518.3 551 491 552C463.7 553 436.3 549 409 548C381.7 547 354.3 549 327 544C299.7 539 272.3 527 245.2 525C218 523 191 531 163.8 538C136.7 545 109.3 551 82 555C54.7 559 27.3 561 13.7 562L0 563Z" fill="#a367b1"></path></svg>