<svg id="visual" viewBox="0 0 900 600" width="900" height="600" xmlns="http://www.w3.org/2000/svg" xmlns:xlink="http://www.w3.org/1999/xlink" version="1.1"><path d="M0 223L13.7 220C27.3 217 54.7 211 82 203C109.3 195 136.7 185 163.8 179C191 173 218 171 245.2 180C272.3 189 299.7 209 327 223C354.3 237 381.7 245 409 236C436.3 227 463.7 201 491 203C518.3 205 545.7 235 573 240C600.3 245 627.7 225 654.8 196C682 167 709 129 736.2 127C763.3 125 790.7 159 818 172C845.3 185 872.7 177 886.3 173L900 169L900 0L886.3 0C872.7 0 845.3 0 818 0C790.7 0 763.3 0 736.2 0C709 0 682 0 654.8 0C627.7 0 600.3 0 573 0C545.7 0 518.3 0 491 0C463.7 0 436.3 0 409 0C381.7 0 354.3 0 327 0C299.7 0 272.3 0 245.2 0C218 0 191 0 163.8 0C136.7 0 109.3 0 82 0C54.7 0 27.3 0 13.7 0L0 0Z" fill="#060805"></path><path d="M0 397L13.7 375C27.3 353 54.7 309 82 295C109.3 281 136.7 297 163.8 292C191 287 218 261 245.2 271C272.3 281 299.7 327 327 339C354.3 351 381.7 329 409 305C436.3 281 463.7 255 491 262C518.3 269 545.7 309 573 316C600.3 323 627.7 297 654.8 280C682 263 709 255 736.2 267C763.3 279 790.7 311 818 308C845.3 305 872.7 267 886.3 248L900 229L900 167L886.3 171C872.7 175 845.3 183 818 170C790.7 157 763.3 123 736.2 125C709 127 682 165 654.8 194C627.7 223 600.3 243 573 238C545.7 233 518.3 203 491 201C463.7 199 436.3 225 409 234C381.7 243 354.3 235 327 221C299.7 207 272.3 187 245.2 178C218 169 191 171 163.8 177C136.7 183 109.3 193 82 201C54.7 209 27.3 215 13.7 218L0 221Z" fill="#070906"></path><path d="M0 505L13.7 492C27.3 479 54.7 453 82 440C109.3 427 136.7 427 163.8 424C191 421 218 415 245.2 426C272.3 437 299.7 465 327 475C354.3 485 381.7 477 409 466C436.3 455 463.7 441 491 441C518.3 441 545.7 455 573 454C600.3 453 627.7 437 654.8 433C682 429 709 437 736.2 444C763.3 451 790.7 457 818 466C845.3 475 872.7 487 886.3 493L900 499L900 227L886.3 246C872.7 265 845.3 303 818 306C790.7 309 763.3 277 736.2 265C709 253 682 261 654.8 278C627.7 295 600.3 321 573 314C545.7 307 518.3 267 491 260C463.7 253 436.3 279 409 303C381.7 327 354.3 349 327 337C299.7 325 272.3 279 245.2 269C218 259 191 285 163.8 290C136.7 295 109.3 279 82 293C54.7 307 27.3 351 13.7 373L0 395Z" fill="#090a06"></path><path d="M0 547L13.7 539C27.3 531 54.7 515 82 513C109.3 511 136.7 523 163.8 527C191 531 218 527 245.2 528C272.3 529 299.7 535 327 542C354.3 549 381.7 557 409 551C436.3 545 463.7 525 491 517C518.3 509 545.7 513 573 518C600.3 523 627.7 529 654.8 528C682 527 709 519 736.2 522C763.3 525 790.7 539 818 546C845.3 553 872.7 553 886.3 553L900 553L900 497L886.3 491C872.7 485 845.3 473 818 464C790.7 455 763.3 449 736.2 442C709 435 682 427 654.8 431C627.7 435 600.3 451 573 452C545.7 453 518.3 439 491 439C463.7 439 436.3 453 409 464C381.7 475 354.3 483 327 473C299.7 463 272.3 435 245.2 424C218 413 191 419 163.8 422C136.7 425 109.3 425 82 438C54.7 451 27.3 477 13.7 490L0 503Z" fill="#1f2117"></path><path d="M0 601L13.7 601C27.3 601 54.7 601 82 601C109.3 601 136.7 601 163.8 601C191 601 218 601 245.2 601C272.3 601 299.7 601 327 601C354.3 601 381.7 601 409 601C436.3 601 463.7 601 491 601C518.3 601 545.7 601 573 601C600.3 601 627.7 601 654.8 601C682 601 709 601 736.2 601C763.3 601 790.7 601 818 601C845.3 601 872.7 601 886.3 601L900 601L900 551L886.3 551C872.7 551 845.3 551 818 544C790.7 537 763.3 523 736.2 520C709 517 682 525 654.8 526C627.7 527 600.3 521 573 516C545.7 511 518.3 507 491 515C463.7 523 436.3 543 409 549C381.7 555 354.3 547 327 540C299.7 533 272.3 527 245.2 526C218 525 191 529 163.8 525C136.7 521 109.3 509 82 511C54.7 513 27.3 529 13.7 537L0 545Z" fill="#323724"></path></svg>