<svg id="visual" viewBox="0 0 900 600" width="900" height="600" xmlns="http://www.w3.org/2000/svg" xmlns:xlink="http://www.w3.org/1999/xlink" version="1.1"><path d="M0 157L11.5 144C23 131 46 105 69 109C92 113 115 147 138.2 149C161.3 151 184.7 121 207.8 119C231 117 254 143 277 153C300 163 323 157 346 160C369 163 392 175 415.2 179C438.3 183 461.7 179 484.8 179C508 179 531 183 554 167C577 151 600 115 623 121C646 127 669 175 692.2 201C715.3 227 738.7 231 761.8 235C785 239 808 243 831 228C854 213 877 179 888.5 162L900 145L900 0L888.5 0C877 0 854 0 831 0C808 0 785 0 761.8 0C738.7 0 715.3 0 692.2 0C669 0 646 0 623 0C600 0 577 0 554 0C531 0 508 0 484.8 0C461.7 0 438.3 0 415.2 0C392 0 369 0 346 0C323 0 300 0 277 0C254 0 231 0 207.8 0C184.7 0 161.3 0 138.2 0C115 0 92 0 69 0C46 0 23 0 11.5 0L0 0Z" fill="#030305"></path><path d="M0 265L11.5 246C23 227 46 189 69 185C92 181 115 211 138.2 216C161.3 221 184.7 201 207.8 202C231 203 254 225 277 233C300 241 323 235 346 231C369 227 392 225 415.2 223C438.3 221 461.7 219 484.8 231C508 243 531 269 554 257C577 245 600 195 623 196C646 197 669 249 692.2 278C715.3 307 738.7 313 761.8 319C785 325 808 331 831 321C854 311 877 285 888.5 272L900 259L900 143L888.5 160C877 177 854 211 831 226C808 241 785 237 761.8 233C738.7 229 715.3 225 692.2 199C669 173 646 125 623 119C600 113 577 149 554 165C531 181 508 177 484.8 177C461.7 177 438.3 181 415.2 177C392 173 369 161 346 158C323 155 300 161 277 151C254 141 231 115 207.8 117C184.7 119 161.3 149 138.2 147C115 145 92 111 69 107C46 103 23 129 11.5 142L0 155Z" fill="#030406"></path><path d="M0 379L11.5 347C23 315 46 251 69 242C92 233 115 279 138.2 298C161.3 317 184.7 309 207.8 306C231 303 254 305 277 317C300 329 323 351 346 347C369 343 392 313 415.2 320C438.3 327 461.7 371 484.8 382C508 393 531 371 554 356C577 341 600 333 623 338C646 343 669 361 692.2 377C715.3 393 738.7 407 761.8 416C785 425 808 429 831 421C854 413 877 393 888.5 383L900 373L900 257L888.5 270C877 283 854 309 831 319C808 329 785 323 761.8 317C738.7 311 715.3 305 692.2 276C669 247 646 195 623 194C600 193 577 243 554 255C531 267 508 241 484.8 229C461.7 217 438.3 219 415.2 221C392 223 369 225 346 229C323 233 300 239 277 231C254 223 231 201 207.8 200C184.7 199 161.3 219 138.2 214C115 209 92 179 69 183C46 187 23 225 11.5 244L0 263Z" fill="#040407"></path><path d="M0 409L11.5 392C23 375 46 341 69 342C92 343 115 379 138.2 390C161.3 401 184.7 387 207.8 391C231 395 254 417 277 429C300 441 323 443 346 437C369 431 392 417 415.2 419C438.3 421 461.7 439 484.8 443C508 447 531 437 554 420C577 403 600 379 623 392C646 405 669 455 692.2 478C715.3 501 738.7 497 761.8 494C785 491 808 489 831 482C854 475 877 463 888.5 457L900 451L900 371L888.5 381C877 391 854 411 831 419C808 427 785 423 761.8 414C738.7 405 715.3 391 692.2 375C669 359 646 341 623 336C600 331 577 339 554 354C531 369 508 391 484.8 380C461.7 369 438.3 325 415.2 318C392 311 369 341 346 345C323 349 300 327 277 315C254 303 231 301 207.8 304C184.7 307 161.3 315 138.2 296C115 277 92 231 69 240C46 249 23 313 11.5 345L0 377Z" fill="#151620"></path><path d="M0 601L11.5 601C23 601 46 601 69 601C92 601 115 601 138.2 601C161.3 601 184.7 601 207.8 601C231 601 254 601 277 601C300 601 323 601 346 601C369 601 392 601 415.2 601C438.3 601 461.7 601 484.8 601C508 601 531 601 554 601C577 601 600 601 623 601C646 601 669 601 692.2 601C715.3 601 738.7 601 761.8 601C785 601 808 601 831 601C854 601 877 601 888.5 601L900 601L900 449L888.5 455C877 461 854 473 831 480C808 487 785 489 761.8 492C738.7 495 715.3 499 692.2 476C669 453 646 403 623 390C600 377 577 401 554 418C531 435 508 445 484.8 441C461.7 437 438.3 419 415.2 417C392 415 369 429 346 435C323 441 300 439 277 427C254 415 231 393 207.8 389C184.7 385 161.3 399 138.2 388C115 377 92 341 69 340C46 339 23 373 11.5 390L0 407Z" fill="#212236"></path></svg>